<svg width="25" height="48" viewBox="0 0 25 48" fill="none" xmlns="http://www.w3.org/2000/svg">
<path d="M1.78088 13.6541L4.88828 47C4.91006 47.2575 5.02776 47.4975 5.21806 47.6724C5.40837 47.8473 5.65741 47.9444 5.91588 47.9444H18.8946C19.153 47.9445 19.4021 47.8474 19.5924 47.6725C19.7828 47.4976 19.9004 47.2576 19.9221 47L23.0295 13.6541H1.78088Z" fill="#BFBFBF"/>
<path d="M23.6705 11.2652H1.14005C0.837693 11.2652 0.547715 11.3853 0.333914 11.5991C0.120113 11.8129 0 12.1029 0 12.4052V13.6553H24.8081V12.4052C24.8081 12.1033 24.6883 11.8137 24.475 11.6C24.2618 11.3863 23.9724 11.2659 23.6705 11.2652Z" fill="#6D6D6D"/>
<path opacity="0.21" d="M23.0285 13.6541L22.8886 15.3238H1.92248L1.78259 13.6541H23.0285Z" fill="black"/>
<path d="M12.4727 30.9454C14.9429 30.9454 16.9454 28.9429 16.9454 26.4727C16.9454 24.0025 14.9429 22 12.4727 22C10.0025 22 8 24.0025 8 26.4727C8 28.9429 10.0025 30.9454 12.4727 30.9454Z" fill="#00623B"/>
<path d="M12.4051 0C9.41739 0 6.55203 1.18687 4.43939 3.29951C2.32676 5.41215 1.13989 8.2775 1.13989 11.2652H23.6703C23.6703 8.2775 22.4835 5.41215 20.3708 3.29951C18.2582 1.18687 15.3928 0 12.4051 0Z" fill="black" fill-opacity="0.35"/>
<path d="M12.4058 1.93926C13.5769 1.93926 14.5263 1.63067 14.5263 1.25C14.5263 0.869325 13.5769 0.56073 12.4058 0.56073C11.2347 0.56073 10.2853 0.869325 10.2853 1.25C10.2853 1.63067 11.2347 1.93926 12.4058 1.93926Z" fill="white" fill-opacity="0.63"/>
<path d="M18.9221 8.87634H5.88855C5.25504 8.87642 4.64751 9.12815 4.19957 9.57614C3.75164 10.0241 3.5 10.6317 3.5 11.2652H21.3109C21.3109 10.6316 21.0593 10.024 20.6113 9.57603C20.1633 9.12803 19.5557 8.87634 18.9221 8.87634Z" fill="#80DEEA"/>
<path d="M16.9341 6.48749H7.87531C7.24175 6.48749 6.63414 6.73917 6.18614 7.18717C5.73814 7.63517 5.48645 8.24278 5.48645 8.87635H19.3211C19.3211 8.2431 19.0697 7.63577 18.6221 7.18782C18.1745 6.73988 17.5673 6.48798 16.9341 6.48749Z" fill="#80DEEA"/>
<path d="M14.9464 4.09863H9.86427C9.23078 4.09863 8.62324 4.35028 8.1753 4.79822C7.72736 5.24617 7.47571 5.8537 7.47571 6.48719H17.3356C17.3355 6.17348 17.2737 5.86285 17.1536 5.57303C17.0335 5.28322 16.8576 5.0199 16.6357 4.7981C16.4138 4.5763 16.1505 4.40037 15.8606 4.28036C15.5708 4.16034 15.2601 4.09859 14.9464 4.09863Z" fill="#80DEEA"/>
</svg>
