<svg width="25" height="40" viewBox="0 0 25 40" fill="none" xmlns="http://www.w3.org/2000/svg">
<path d="M1.78064 13.6539L4.88804 39.0554C4.90982 39.313 5.02752 39.5529 5.21782 39.7278C5.40812 39.9027 5.65717 39.9998 5.91564 39.9998H18.8943C19.1528 39.9999 19.4019 39.9028 19.5922 39.7279C19.7825 39.553 19.9002 39.313 19.9219 39.0554L23.0293 13.6539H1.78064Z" fill="#FAFAFA"/>
<path d="M23.6705 11.2654H1.14005C0.837694 11.2654 0.547715 11.3855 0.333914 11.5993C0.120114 11.8131 0 12.1031 0 12.4054V13.6555H24.8081V12.4054C24.8081 12.1035 24.6883 11.8139 24.4751 11.6002C24.2618 11.3864 23.9724 11.266 23.6705 11.2654Z" fill="#FAFAFA"/>
<path d="M23.0285 13.6539L22.8886 15.3236H1.92248L1.78259 13.6539H23.0285Z" fill="#E0E0E0"/>
<path d="M12.4052 30.492C14.8754 30.492 16.8779 28.4895 16.8779 26.0193C16.8779 23.5491 14.8754 21.5466 12.4052 21.5466C9.93499 21.5466 7.9325 23.5491 7.9325 26.0193C7.9325 28.4895 9.93499 30.492 12.4052 30.492Z" fill="#00623B"/>
<path d="M12.4053 0C9.41752 0 6.55216 1.18687 4.43952 3.29951C2.32688 5.41215 1.14001 8.27751 1.14001 11.2652H23.6705C23.6705 8.27751 22.4836 5.41215 20.371 3.29951C18.2583 1.18687 15.393 0 12.4053 0Z" fill="white" fill-opacity="0.35"/>
<path d="M12.4063 1.93902C13.5774 1.93902 14.5268 1.63043 14.5268 1.24975C14.5268 0.869082 13.5774 0.560486 12.4063 0.560486C11.2351 0.560486 10.2858 0.869082 10.2858 1.24975C10.2858 1.63043 11.2351 1.93902 12.4063 1.93902Z" fill="white" fill-opacity="0.63"/>
<path d="M18.9217 8.87616H5.88819C5.25467 8.87624 4.64714 9.12796 4.19921 9.57595C3.75127 10.0239 3.49963 10.6315 3.49963 11.265H21.3106C21.3106 10.6315 21.0589 10.0238 20.6109 9.57585C20.1629 9.12785 19.5553 8.87616 18.9217 8.87616Z" fill="#80DEEA"/>
<path d="M16.9336 6.48767H7.87483C7.24126 6.48767 6.63365 6.73935 6.18565 7.18735C5.73765 7.63535 5.48596 8.24297 5.48596 8.87653H19.3206C19.3206 8.24329 19.0692 7.63595 18.6216 7.18801C18.174 6.74006 17.5669 6.48816 16.9336 6.48767Z" fill="#80DEEA"/>
<path d="M14.9464 4.09851H9.86427C9.23079 4.09851 8.62324 4.35016 8.1753 4.7981C7.72736 5.24605 7.47571 5.85358 7.47571 6.48707H17.3356C17.3356 6.17336 17.2737 5.86273 17.1536 5.57291C17.0336 5.2831 16.8576 5.01977 16.6357 4.79798C16.4139 4.57618 16.1505 4.40025 15.8606 4.28024C15.5708 4.16022 15.2601 4.09847 14.9464 4.09851Z" fill="#80DEEA"/>
</svg>
